<mxfile host="app.diagrams.net" modified="2024-06-20T05:00:50.337Z" agent="Mozilla/5.0 (Windows NT 10.0; Win64; x64) AppleWebKit/537.36 (KHTML, like Gecko) Chrome/126.0.0.0 Safari/537.36" etag="l5jyw0jMuXUxRe50lxAH" version="24.5.5" type="device">
  <diagram id="C5RBs43oDa-KdzZeNtuy" name="Page-1">
    <mxGraphModel dx="1674" dy="746" grid="1" gridSize="10" guides="1" tooltips="1" connect="1" arrows="1" fold="1" page="1" pageScale="1" pageWidth="827" pageHeight="1169" math="0" shadow="0">
      <root>
        <mxCell id="WIyWlLk6GJQsqaUBKTNV-0" />
        <mxCell id="WIyWlLk6GJQsqaUBKTNV-1" parent="WIyWlLk6GJQsqaUBKTNV-0" />
        <mxCell id="OZVwI2gNCaoMPM2afj16-3" style="edgeStyle=orthogonalEdgeStyle;rounded=0;orthogonalLoop=1;jettySize=auto;html=1;exitX=0.5;exitY=1;exitDx=0;exitDy=0;exitPerimeter=0;" parent="WIyWlLk6GJQsqaUBKTNV-1" source="OZVwI2gNCaoMPM2afj16-0" target="OZVwI2gNCaoMPM2afj16-1" edge="1">
          <mxGeometry relative="1" as="geometry" />
        </mxCell>
        <mxCell id="OZVwI2gNCaoMPM2afj16-0" value="Inicio" style="strokeWidth=2;html=1;shape=mxgraph.flowchart.start_1;whiteSpace=wrap;" parent="WIyWlLk6GJQsqaUBKTNV-1" vertex="1">
          <mxGeometry x="340" y="20" width="100" height="60" as="geometry" />
        </mxCell>
        <mxCell id="OZVwI2gNCaoMPM2afj16-1" value="Numero_Secreto = random,ranint(1,10)" style="rounded=1;whiteSpace=wrap;html=1;" parent="WIyWlLk6GJQsqaUBKTNV-1" vertex="1">
          <mxGeometry x="330" y="100" width="220" height="60" as="geometry" />
        </mxCell>
        <mxCell id="OZVwI2gNCaoMPM2afj16-10" style="edgeStyle=orthogonalEdgeStyle;rounded=0;orthogonalLoop=1;jettySize=auto;html=1;exitX=0.5;exitY=1;exitDx=0;exitDy=0;exitPerimeter=0;" parent="WIyWlLk6GJQsqaUBKTNV-1" source="OZVwI2gNCaoMPM2afj16-6" target="OZVwI2gNCaoMPM2afj16-9" edge="1">
          <mxGeometry relative="1" as="geometry">
            <mxPoint x="387.5" y="290" as="sourcePoint" />
          </mxGeometry>
        </mxCell>
        <mxCell id="OZVwI2gNCaoMPM2afj16-6" value="&lt;font style=&quot;font-size: 11px;&quot;&gt;Adivina el número secreto!&lt;/font&gt;&lt;div&gt;&lt;span style=&quot;background-color: initial; font-size: 11px;&quot;&gt;Ingrese un número entre 1 y 10&lt;/span&gt;&lt;div&gt;&lt;div&gt;&lt;div style=&quot;font-size: 11px;&quot;&gt;&lt;br&gt;&lt;/div&gt;&lt;/div&gt;&lt;/div&gt;&lt;/div&gt;" style="strokeWidth=2;html=1;shape=mxgraph.flowchart.display;whiteSpace=wrap;" parent="WIyWlLk6GJQsqaUBKTNV-1" vertex="1">
          <mxGeometry x="297.5" y="220" width="185" height="60" as="geometry" />
        </mxCell>
        <mxCell id="OZVwI2gNCaoMPM2afj16-8" style="edgeStyle=orthogonalEdgeStyle;rounded=0;orthogonalLoop=1;jettySize=auto;html=1;exitX=0.5;exitY=1;exitDx=0;exitDy=0;entryX=0.5;entryY=0;entryDx=0;entryDy=0;entryPerimeter=0;" parent="WIyWlLk6GJQsqaUBKTNV-1" source="OZVwI2gNCaoMPM2afj16-1" target="OZVwI2gNCaoMPM2afj16-6" edge="1">
          <mxGeometry relative="1" as="geometry" />
        </mxCell>
        <mxCell id="OZVwI2gNCaoMPM2afj16-12" style="edgeStyle=orthogonalEdgeStyle;rounded=0;orthogonalLoop=1;jettySize=auto;html=1;exitX=0.5;exitY=1;exitDx=0;exitDy=0;entryX=0.5;entryY=0;entryDx=0;entryDy=0;" parent="WIyWlLk6GJQsqaUBKTNV-1" source="OZVwI2gNCaoMPM2afj16-9" target="OZVwI2gNCaoMPM2afj16-11" edge="1">
          <mxGeometry relative="1" as="geometry" />
        </mxCell>
        <mxCell id="OZVwI2gNCaoMPM2afj16-9" value="Numero_Usuario" style="shape=parallelogram;html=1;strokeWidth=2;perimeter=parallelogramPerimeter;whiteSpace=wrap;rounded=1;arcSize=12;size=0.23;" parent="WIyWlLk6GJQsqaUBKTNV-1" vertex="1">
          <mxGeometry x="325" y="310" width="130" height="40" as="geometry" />
        </mxCell>
        <mxCell id="OZVwI2gNCaoMPM2afj16-13" style="edgeStyle=orthogonalEdgeStyle;rounded=0;orthogonalLoop=1;jettySize=auto;html=1;exitX=1;exitY=0.5;exitDx=0;exitDy=0;entryX=0.5;entryY=0;entryDx=0;entryDy=0;entryPerimeter=0;" parent="WIyWlLk6GJQsqaUBKTNV-1" source="OZVwI2gNCaoMPM2afj16-11" target="OZVwI2gNCaoMPM2afj16-21" edge="1">
          <mxGeometry relative="1" as="geometry">
            <mxPoint x="620" y="435" as="targetPoint" />
          </mxGeometry>
        </mxCell>
        <mxCell id="OZVwI2gNCaoMPM2afj16-16" value="Verdadero" style="edgeLabel;html=1;align=center;verticalAlign=middle;resizable=0;points=[];" parent="OZVwI2gNCaoMPM2afj16-13" vertex="1" connectable="0">
          <mxGeometry x="0.2231" y="1" relative="1" as="geometry">
            <mxPoint as="offset" />
          </mxGeometry>
        </mxCell>
        <mxCell id="OZVwI2gNCaoMPM2afj16-19" style="edgeStyle=orthogonalEdgeStyle;rounded=0;orthogonalLoop=1;jettySize=auto;html=1;exitX=0;exitY=0.5;exitDx=0;exitDy=0;" parent="WIyWlLk6GJQsqaUBKTNV-1" source="OZVwI2gNCaoMPM2afj16-11" target="OZVwI2gNCaoMPM2afj16-17" edge="1">
          <mxGeometry relative="1" as="geometry" />
        </mxCell>
        <mxCell id="OZVwI2gNCaoMPM2afj16-20" value="Falso" style="edgeLabel;html=1;align=center;verticalAlign=middle;resizable=0;points=[];" parent="OZVwI2gNCaoMPM2afj16-19" vertex="1" connectable="0">
          <mxGeometry x="0.0114" y="-3" relative="1" as="geometry">
            <mxPoint as="offset" />
          </mxGeometry>
        </mxCell>
        <mxCell id="OZVwI2gNCaoMPM2afj16-11" value="&lt;font style=&quot;font-size: 8px;&quot;&gt;&lt;b&gt;Numero_Usuario = Numero_Secreto&amp;nbsp;&lt;/b&gt;&lt;/font&gt;" style="rhombus;whiteSpace=wrap;html=1;" parent="WIyWlLk6GJQsqaUBKTNV-1" vertex="1">
          <mxGeometry x="308.75" y="380" width="157.5" height="110" as="geometry" />
        </mxCell>
        <mxCell id="OZVwI2gNCaoMPM2afj16-18" style="edgeStyle=orthogonalEdgeStyle;rounded=0;orthogonalLoop=1;jettySize=auto;html=1;exitX=0.5;exitY=0;exitDx=0;exitDy=0;exitPerimeter=0;" parent="WIyWlLk6GJQsqaUBKTNV-1" source="OZVwI2gNCaoMPM2afj16-17" edge="1">
          <mxGeometry relative="1" as="geometry">
            <mxPoint x="390" y="190" as="targetPoint" />
            <Array as="points">
              <mxPoint x="220" y="190" />
              <mxPoint x="391" y="190" />
            </Array>
          </mxGeometry>
        </mxCell>
        <mxCell id="OZVwI2gNCaoMPM2afj16-17" value="&lt;font style=&quot;font-size: 10px;&quot;&gt;Incorrecto! Favor intenta nuevamente.&lt;/font&gt;&lt;div style=&quot;font-size: 10px;&quot;&gt;&lt;br&gt;&lt;/div&gt;" style="strokeWidth=2;html=1;shape=mxgraph.flowchart.display;whiteSpace=wrap;" parent="WIyWlLk6GJQsqaUBKTNV-1" vertex="1">
          <mxGeometry x="150" y="280" width="140" height="90" as="geometry" />
        </mxCell>
        <mxCell id="OZVwI2gNCaoMPM2afj16-22" style="edgeStyle=orthogonalEdgeStyle;rounded=0;orthogonalLoop=1;jettySize=auto;html=1;exitX=0.5;exitY=1;exitDx=0;exitDy=0;exitPerimeter=0;entryX=0.5;entryY=0;entryDx=0;entryDy=0;entryPerimeter=0;" parent="WIyWlLk6GJQsqaUBKTNV-1" source="OZVwI2gNCaoMPM2afj16-21" target="OZVwI2gNCaoMPM2afj16-23" edge="1">
          <mxGeometry relative="1" as="geometry">
            <mxPoint x="610" y="550" as="targetPoint" />
            <Array as="points" />
          </mxGeometry>
        </mxCell>
        <mxCell id="OZVwI2gNCaoMPM2afj16-21" value="Felicidades, has acertado" style="strokeWidth=2;html=1;shape=mxgraph.flowchart.display;whiteSpace=wrap;" parent="WIyWlLk6GJQsqaUBKTNV-1" vertex="1">
          <mxGeometry x="560" y="470" width="100" height="60" as="geometry" />
        </mxCell>
        <mxCell id="OZVwI2gNCaoMPM2afj16-23" value="Fin" style="strokeWidth=2;html=1;shape=mxgraph.flowchart.terminator;whiteSpace=wrap;" parent="WIyWlLk6GJQsqaUBKTNV-1" vertex="1">
          <mxGeometry x="570" y="555" width="80" height="35" as="geometry" />
        </mxCell>
      </root>
    </mxGraphModel>
  </diagram>
</mxfile>
